<svg width="595" height="842" viewBox="0 0 595 842" fill="none" xmlns="http://www.w3.org/2000/svg">
<path d="M80.1667 69.9167L56.25 91.9935L80.1667 117.75M139.958 69.9167L163.875 91.9935L139.958 117.75M122.021 46L98.1042 141.667" stroke="white" stroke-width="10" stroke-linecap="round" stroke-linejoin="round"/>
<path d="M80.1667 343.917L56.25 365.994L80.1667 391.75M139.958 343.917L163.875 365.994L139.958 391.75M122.021 320L98.1042 415.667" stroke="white" stroke-width="10" stroke-linecap="round" stroke-linejoin="round"/>
<path d="M80.1667 617.917L56.25 639.994L80.1667 665.75M139.958 617.917L163.875 639.994L139.958 665.75M122.021 594L98.1042 689.667" stroke="white" stroke-width="10" stroke-linecap="round" stroke-linejoin="round"/>
<path d="M155.917 199.917L132 221.994L155.917 247.75M215.708 199.917L239.625 221.994L215.708 247.75M197.771 176L173.854 271.667" stroke="white" stroke-width="10" stroke-linecap="round" stroke-linejoin="round"/>
<path d="M155.917 473.917L132 495.994L155.917 521.75M215.708 473.917L239.625 495.994L215.708 521.75M197.771 450L173.854 545.667" stroke="white" stroke-width="10" stroke-linecap="round" stroke-linejoin="round"/>
<path d="M155.917 747.917L132 769.994L155.917 795.75M215.708 747.917L239.625 769.994L215.708 795.75M197.771 724L173.854 819.667" stroke="white" stroke-width="10" stroke-linecap="round" stroke-linejoin="round"/>
<path d="M273.917 69.9167L250 91.9935L273.917 117.75M333.708 69.9167L357.625 91.9935L333.708 117.75M315.771 46L291.854 141.667" stroke="white" stroke-width="10" stroke-linecap="round" stroke-linejoin="round"/>
<path d="M273.917 343.917L250 365.994L273.917 391.75M333.708 343.917L357.625 365.994L333.708 391.75M315.771 320L291.854 415.667" stroke="white" stroke-width="10" stroke-linecap="round" stroke-linejoin="round"/>
<path d="M273.917 617.917L250 639.994L273.917 665.75M333.708 617.917L357.625 639.994L333.708 665.75M315.771 594L291.854 689.667" stroke="white" stroke-width="10" stroke-linecap="round" stroke-linejoin="round"/>
<path d="M467.917 69.9167L444 91.9935L467.917 117.75M527.708 69.9167L551.625 91.9935L527.708 117.75M509.771 46L485.854 141.667" stroke="white" stroke-width="10" stroke-linecap="round" stroke-linejoin="round"/>
<path d="M467.917 343.917L444 365.994L467.917 391.75M527.708 343.917L551.625 365.994L527.708 391.75M509.771 320L485.854 415.667" stroke="white" stroke-width="10" stroke-linecap="round" stroke-linejoin="round"/>
<path d="M467.917 617.917L444 639.994L467.917 665.75M527.708 617.917L551.625 639.994L527.708 665.75M509.771 594L485.854 689.667" stroke="white" stroke-width="10" stroke-linecap="round" stroke-linejoin="round"/>
<path d="M381.917 199.917L358 221.994L381.917 247.75M441.708 199.917L465.625 221.994L441.708 247.75M423.771 176L399.854 271.667" stroke="white" stroke-width="10" stroke-linecap="round" stroke-linejoin="round"/>
<path d="M381.917 473.917L358 495.994L381.917 521.75M441.708 473.917L465.625 495.994L441.708 521.75M423.771 450L399.854 545.667" stroke="white" stroke-width="10" stroke-linecap="round" stroke-linejoin="round"/>
<path d="M381.917 747.917L358 769.994L381.917 795.75M441.708 747.917L465.625 769.994L441.708 795.75M423.771 724L399.854 819.667" stroke="white" stroke-width="10" stroke-linecap="round" stroke-linejoin="round"/>
</svg>
